<svg xmlns="http://www.w3.org/2000/svg" width="474" height="556.377" viewBox="0 0 474 556.377">
  <g id="Group_373" data-name="Group 373" transform="translate(1827 -2863.145)" style="isolation: isolate">
    <path id="Union_2" data-name="Union 2" d="M53.618,502.759a183.137,183.137,0,0,1,94.576-309.212l18.128-69.731a12.77,12.77,0,0,1,.333-4.2l10.746-43a23.462,23.462,0,0,1,39.353-10.9L235.426,84.4H249.3V78.009a6.385,6.385,0,0,1,6.387-6.387h6.386a6.379,6.379,0,0,1,6.383,6.387l2.206,134.462a183.807,183.807,0,0,1,41.849,31.4A183.063,183.063,0,1,1,53.618,502.759Zm195.45-300.3c.071,0,.146-.006.225-.007V109.945h-19.16A12.775,12.775,0,0,1,221.1,106.2l-8.953-8.953-7.939,31.761c-.052.207-.188.363-.247.563l18.689,18.689a25.377,25.377,0,0,1,7.484,18.062v30A181.011,181.011,0,0,1,249.068,202.458ZM204.59,191.495V166.323l-17.678-17.678L175.556,190.4q3.74-.15,7.507-.15A186.153,186.153,0,0,1,204.59,191.495ZM145.5,122.535l-25.371-6.087a6.263,6.263,0,0,1-4.758-7.608L125.461,69.67c4.379-16.805,13.234-16.268,31.322-18.423,3.5.842,13.954-.15,13.081,3.211l-16.43,63.51a6.5,6.5,0,0,1-6.341,4.754A6.829,6.829,0,0,1,145.5,122.535Zm46.314-95.619a19.077,19.077,0,0,1,1.9-8.326c.3-6.307,5.379-11.605,12.312-13.391a3.9,3.9,0,0,1-.093-.819c0-2.416,2.349-4.38,5.235-4.38s5.235,1.965,5.235,4.38a3.925,3.925,0,0,1-.095.819c6.685,1.721,11.66,6.71,12.266,12.734h11a1.375,1.375,0,0,1,1.48,1.239,1.375,1.375,0,0,1-1.48,1.238H229a19.162,19.162,0,1,1-37.187,6.506Z" transform="translate(-1761.36 2863.145)" opacity="0.999"/>
    <g id="earth-svgrepo-com" transform="translate(-1761.36 3053.395)" opacity="0.403">
      <g id="Group_367" data-name="Group 367" transform="translate(6.592 7.468)">
        <circle id="Ellipse_3" data-name="Ellipse 3" cx="175.919" cy="175.919" r="175.919" transform="translate(0 0)" fill="#d7e6d8"/>
        <path id="Path_191" data-name="Path 191" d="M295.886,309.044,286.836,324a28.215,28.215,0,0,0-4.077,14.61v.449a7.917,7.917,0,0,1-7.914,7.918h0A13.738,13.738,0,0,1,261.1,333.235h0a27.057,27.057,0,0,0-7.924-19.132l-3.348-3.348a34.119,34.119,0,0,1-9.993-24.125v-21.5a12.29,12.29,0,0,0-12.29-12.29h-2.55a18.337,18.337,0,0,1-18.337-18.337v-11.19A19.243,19.243,0,0,1,225.9,204.073h61.285L306.9,223.785a30.472,30.472,0,0,1,8.926,21.548v8.361a8.222,8.222,0,0,0,8.222,8.222h0a4.01,4.01,0,0,1,2.844,6.837l-8.131,8.179A105.686,105.686,0,0,0,303.127,297Z" transform="translate(-62.527 -62.703)" fill="#4fc497"/>
        <path id="Path_192" data-name="Path 192" d="M258.057,49.421H284.8a9.116,9.116,0,0,1,9.117,9.117h0a9.116,9.116,0,0,1-9.117,9.117H213.536a7.813,7.813,0,0,0-7.813,7.813v1.479a12.955,12.955,0,0,1-3.793,9.159l-4.267,4.267a30.909,30.909,0,0,0-9.053,21.855v9.9a6.257,6.257,0,0,0,6.257,6.257h7.352a10.743,10.743,0,0,0,10.743-10.743h0a13.789,13.789,0,0,1,4.038-9.75l3.771-3.771a13.789,13.789,0,0,1,9.75-4.038h14.536A32.158,32.158,0,0,1,267.8,109.5l7.258,7.258a45.308,45.308,0,0,1,13.27,32.037v13.154h11.959a43.427,43.427,0,0,1,30.708,12.72l5.812,5.812a15.679,15.679,0,0,0,22.173,0h0a15.968,15.968,0,0,0,0-22.582l-2.407-2.407a8.169,8.169,0,0,1,5.776-13.946H401.86a21.514,21.514,0,0,1-.27-4.106A176.258,176.258,0,0,0,302.633,29H258.057a10.211,10.211,0,0,0-10.211,10.211h0A10.21,10.21,0,0,0,258.057,49.421Z" transform="translate(-57.642 -15.317)" fill="#4fc497"/>
        <path id="Path_193" data-name="Path 193" d="M113.939,280.882V267.837a35.227,35.227,0,0,0-10.317-24.908l-.141-.141a22.721,22.721,0,0,0-16.066-6.654h0a21.772,21.772,0,0,1-15.395-6.377l-6.4-6.4A35.014,35.014,0,0,0,40.857,213.1H13.9l-2.033,2.033A177.268,177.268,0,0,0,10,240.741,175.359,175.359,0,0,0,70.5,373.434V366a56.121,56.121,0,0,1,16.437-39.682L100.9,312.355A44.508,44.508,0,0,0,113.939,280.882Z" transform="translate(-9.298 -65.146)" fill="#4fc497"/>
      </g>
      <g id="Group_368" data-name="Group 368" transform="translate(0 0)">
        <path id="Path_194" data-name="Path 194" d="M312.508,53.618A183.063,183.063,0,0,0,53.618,312.508,183.063,183.063,0,0,0,312.508,53.618Zm29.219,72.788H311.3a15.462,15.462,0,0,0-10.934,26.4l2.407,2.407a8.684,8.684,0,0,1,0,12.268,8.385,8.385,0,0,1-11.859,0l-5.812-5.812a50.389,50.389,0,0,0-35.865-14.856h-4.666v-5.861a52.259,52.259,0,0,0-15.406-37.2L221.9,96.494a39.191,39.191,0,0,0-27.895-11.555H179.47a20.944,20.944,0,0,0-14.907,6.175l-3.771,3.77a20.944,20.944,0,0,0-6.175,14.907,3.454,3.454,0,0,1-3.45,3.45h-6.316v-8.864a23.461,23.461,0,0,1,6.916-16.7l4.266-4.266a20.111,20.111,0,0,0,5.93-14.316V67.617a.52.52,0,0,1,.52-.52h71.267a16.409,16.409,0,1,0,0-32.818H207.006a2.917,2.917,0,1,1,0-5.835h42.935A169.383,169.383,0,0,1,341.727,126.406Zm-80.1,86.149-3.976,4A113.1,113.1,0,0,0,240.941,238l-7.234,12.034-9.046,14.946a35.5,35.5,0,0,0-5.132,18.387v.449a.625.625,0,0,1-.624.624h0A6.443,6.443,0,0,1,212.458,278,34.127,34.127,0,0,0,202.4,253.71l-3.348-3.348a26.649,26.649,0,0,1-7.857-18.968V209.9a19.605,19.605,0,0,0-19.584-19.583H169.06a11.056,11.056,0,0,1-11.044-11.044V168.08a11.963,11.963,0,0,1,11.949-11.949h58.264l17.576,17.577a23.028,23.028,0,0,1,6.789,16.39v8.361A15.539,15.539,0,0,0,261.628,212.555ZM14.587,183.063a169.341,169.341,0,0,1,1.233-20.35H38.151a27.538,27.538,0,0,1,19.6,8.12l6.4,6.4a28.874,28.874,0,0,0,20.552,8.513,15.326,15.326,0,0,1,10.909,4.518l.141.141a27.75,27.75,0,0,1,8.181,19.751V223.2a36.975,36.975,0,0,1-10.9,26.316L79.072,263.487a62.937,62.937,0,0,0-17.927,35.739A167.886,167.886,0,0,1,14.587,183.063ZM183.063,351.539A167.71,167.71,0,0,1,75.086,312.282v-3.955a48.506,48.506,0,0,1,14.3-34.525l13.967-13.967a51.465,51.465,0,0,0,15.172-36.63V210.16a42.241,42.241,0,0,0-12.453-30.066l-.141-.14a29.817,29.817,0,0,0-21.223-8.791,14.383,14.383,0,0,1-10.237-4.24l-6.4-6.4A42.033,42.033,0,0,0,38.15,148.127H18.239c16.131-76.189,83.9-133.54,164.824-133.54q8.471,0,16.735.83a17.5,17.5,0,0,0,7.208,33.449h26.745a1.823,1.823,0,0,1,0,3.647H162.486A15.124,15.124,0,0,0,147.38,67.619V69.1a5.62,5.62,0,0,1-1.658,4l-4.267,4.267a37.952,37.952,0,0,0-11.189,27.012v9.9a13.566,13.566,0,0,0,13.55,13.551h7.352a18.057,18.057,0,0,0,18.036-18.036,6.452,6.452,0,0,1,1.9-4.593l3.77-3.77c.148-.148.3-.287.461-.419.122.142.244.284.378.419l14.537,14.537a7.292,7.292,0,0,0,10.364,10.26l5.105-5.105a7.294,7.294,0,0,0,0-10.315L194.455,99.539a24.685,24.685,0,0,1,17.131,7.271l7.259,7.258a37.767,37.767,0,0,1,11.134,26.88v.6H169.964a26.566,26.566,0,0,0-26.536,26.536v11.189a25.66,25.66,0,0,0,25.63,25.63h2.548a5,5,0,0,1,5,5v21.5a41.142,41.142,0,0,0,12.129,29.283l3.348,3.348A19.635,19.635,0,0,1,197.869,278a21.03,21.03,0,0,0,21.03,21.031h.011a15.231,15.231,0,0,0,15.206-15.212v-.448a20.918,20.918,0,0,1,3.024-10.834l9.05-14.953a.168.168,0,0,1,.012-.019l7.241-12.046A98.508,98.508,0,0,1,268,226.84l8.13-8.178a11.3,11.3,0,0,0-8.016-19.273.929.929,0,0,1-.928-.928V190.1a37.519,37.519,0,0,0-11.062-26.705l-1.615-1.615a35.861,35.861,0,0,1,20.278,10.2l5.812,5.812a23.118,23.118,0,0,0,32.488-32.9l-2.407-2.407a.875.875,0,0,1,.619-1.494h34.926a168.173,168.173,0,0,1,5.318,42.069C351.539,275.961,275.961,351.539,183.063,351.539Z" transform="translate(0 0)" fill="#333"/>
        <path id="Path_195" data-name="Path 195" d="M181.293,74.036a7.293,7.293,0,0,0,7.293-7.293V51.787a7.293,7.293,0,1,0-14.587,0V66.743A7.293,7.293,0,0,0,181.293,74.036Z" transform="translate(-47.096 -12.043)" fill="#333"/>
        <path id="Path_196" data-name="Path 196" d="M393.715,314.459a7.292,7.292,0,0,0-9.381,4.286,145.8,145.8,0,0,1-136.041,94.444,7.293,7.293,0,0,0,0,14.587A159.785,159.785,0,0,0,398,323.841,7.3,7.3,0,0,0,393.715,314.459Z" transform="translate(-65.23 -84.988)" fill="#333"/>
        <path id="Path_197" data-name="Path 197" d="M190.947,441.243a144.591,144.591,0,0,1-20.825-6.948,7.294,7.294,0,0,0-5.657,13.445,159.128,159.128,0,0,0,22.934,7.651,7.294,7.294,0,0,0,3.549-14.149Z" transform="translate(-43.306 -117.393)" fill="#333"/>
      </g>
    </g>
    <text id="NOMAD" transform="translate(-1827 3259.435)" font-size="139" font-family="Phosphate-Inline, Phosphate"><tspan x="0" y="0">NOMAD</tspan></text>
  </g>
</svg>
