<svg xmlns="http://www.w3.org/2000/svg" width="484" height="544.064" viewBox="0 0 484 544.064">
  <g id="Group_369" data-name="Group 369" transform="translate(1827 -2863.145)">
    <path id="Union_2" data-name="Union 2" d="M52.431,491.633a179.084,179.084,0,0,1,92.483-302.369l17.726-68.188a12.487,12.487,0,0,1,.325-4.106l10.508-42.046a22.943,22.943,0,0,1,38.482-10.656l18.259,18.26H243.78V76.282a6.244,6.244,0,0,1,6.245-6.245h6.245a6.238,6.238,0,0,1,6.242,6.245l2.158,131.487a179.74,179.74,0,0,1,40.923,30.7A179.012,179.012,0,1,1,52.431,491.633ZM243.556,197.978c.07,0,.143-.005.22-.007V107.512H225.04a12.493,12.493,0,0,1-8.83-3.661L207.455,95.1l-7.763,31.058c-.051.2-.184.355-.242.55l18.275,18.275a24.816,24.816,0,0,1,7.319,17.662v29.339A177.005,177.005,0,0,1,243.556,197.978Zm-43.493-10.721V162.642l-17.286-17.286-11.106,40.831q3.657-.146,7.341-.147A182.038,182.038,0,0,1,200.063,187.257Zm-57.78-67.434-24.809-5.952a6.124,6.124,0,0,1-4.653-7.44l9.864-38.3c4.282-16.433,12.941-15.908,30.629-18.016,3.427.824,13.646-.147,12.791,3.14l-16.066,62.1a6.353,6.353,0,0,1-6.2,4.649A6.677,6.677,0,0,1,142.283,119.823Zm45.289-93.5a18.654,18.654,0,0,1,1.857-8.142c.289-6.167,5.26-11.348,12.04-13.094a3.808,3.808,0,0,1-.091-.8c0-2.362,2.3-4.283,5.119-4.283s5.12,1.921,5.12,4.283a3.84,3.84,0,0,1-.092.8c6.537,1.683,11.4,6.561,11.994,12.452h10.759a1.345,1.345,0,0,1,1.447,1.211,1.345,1.345,0,0,1-1.447,1.211H223.936a18.738,18.738,0,1,1-36.364,6.362Z" transform="translate(-1762.813 2863.145)" opacity="0.403"/>
    <g id="earth-svgrepo-com" transform="translate(-1762.813 3049.185)" opacity="0.403">
      <g id="Group_367" data-name="Group 367" transform="translate(7.132 7.132)">
        <circle id="Ellipse_3" data-name="Ellipse 3" cx="172" cy="172" r="172" transform="translate(-0.319 -0.317)" fill="#d7e6d8"/>
        <path id="Path_191" data-name="Path 191" d="M293.912,306.721l-8.85,14.622a27.591,27.591,0,0,0-3.987,14.287v.439a7.742,7.742,0,0,1-7.739,7.742h0A13.434,13.434,0,0,1,259.9,330.377h0a26.458,26.458,0,0,0-7.749-18.709l-3.274-3.274A33.363,33.363,0,0,1,239.1,284.8V263.782a12.018,12.018,0,0,0-12.018-12.018h-2.493a17.931,17.931,0,0,1-17.931-17.931V222.89a18.817,18.817,0,0,1,18.817-18.817H285.4l19.276,19.276a29.8,29.8,0,0,1,8.728,21.071V252.6a8.04,8.04,0,0,0,8.04,8.04h0a3.922,3.922,0,0,1,2.781,6.686l-7.951,8a103.347,103.347,0,0,0-15.286,19.621Z" transform="translate(-66.403 -65.661)" fill="#4fc497"/>
        <path id="Path_192" data-name="Path 192" d="M256.52,48.969h26.154a8.915,8.915,0,0,1,8.915,8.915h0a8.915,8.915,0,0,1-8.915,8.915H212.984a7.641,7.641,0,0,0-7.64,7.64v1.446a12.668,12.668,0,0,1-3.709,8.956l-4.172,4.172a30.225,30.225,0,0,0-8.852,21.372v9.681a6.119,6.119,0,0,0,6.118,6.118h7.19a10.505,10.505,0,0,0,10.505-10.505h0a13.484,13.484,0,0,1,3.949-9.534l3.687-3.687a13.484,13.484,0,0,1,9.534-3.949h14.215a31.446,31.446,0,0,1,22.235,9.209l7.1,7.1a44.305,44.305,0,0,1,12.977,31.328v12.863h11.694a42.466,42.466,0,0,1,30.028,12.438l5.683,5.683a15.332,15.332,0,0,0,21.683,0h0a15.615,15.615,0,0,0,0-22.083l-2.354-2.354a7.988,7.988,0,0,1,5.648-13.637h38.64a21.023,21.023,0,0,1-.264-4.015A172.357,172.357,0,0,0,300.109,29H256.52a9.985,9.985,0,0,0-9.985,9.985h0A9.984,9.984,0,0,0,256.52,48.969Z" transform="translate(-61.226 -15.449)" fill="#4fc497"/>
        <path id="Path_193" data-name="Path 193" d="M111.639,279.382V266.626a34.448,34.448,0,0,0-10.089-24.357l-.138-.138a22.218,22.218,0,0,0-15.71-6.507h0a21.29,21.29,0,0,1-15.054-6.235l-6.263-6.263A34.24,34.24,0,0,0,40.174,213.1H13.809l-1.988,1.988A173.345,173.345,0,0,0,10,240.129,171.479,171.479,0,0,0,69.16,369.886V362.62a54.879,54.879,0,0,1,16.073-38.8L98.89,310.158A43.523,43.523,0,0,0,111.639,279.382Z" transform="translate(-10 -68.249)" fill="#4fc497"/>
      </g>
      <g id="Group_368" data-name="Group 368">
        <path id="Path_194" data-name="Path 194" d="M305.592,52.431A179.012,179.012,0,0,0,52.431,305.592,179.012,179.012,0,0,0,305.592,52.431Zm28.572,71.178H304.406a15.12,15.12,0,0,0-10.692,25.811l2.354,2.354a8.492,8.492,0,0,1,0,12,8.2,8.2,0,0,1-11.6,0l-5.683-5.683a49.274,49.274,0,0,0-35.071-14.527h-4.562v-5.731a51.1,51.1,0,0,0-15.066-36.372l-7.1-7.1a38.324,38.324,0,0,0-27.278-11.3H175.5A20.481,20.481,0,0,0,160.922,89.1l-3.687,3.687a20.48,20.48,0,0,0-6.038,14.577,3.377,3.377,0,0,1-3.373,3.373h-6.176v-8.668a22.942,22.942,0,0,1,6.763-16.329l4.171-4.171a19.666,19.666,0,0,0,5.8-14V66.12a.509.509,0,0,1,.509-.509h69.69a16.046,16.046,0,1,0,0-32.092H202.425a2.853,2.853,0,0,1,0-5.706H244.41A165.634,165.634,0,0,1,334.164,123.609Zm-78.326,84.243-3.888,3.911a110.592,110.592,0,0,0-16.341,20.975l-7.073,11.768L219.69,259.12a34.713,34.713,0,0,0-5.018,17.98v.439a.611.611,0,0,1-.61.61h0a6.3,6.3,0,0,1-6.3-6.3,33.372,33.372,0,0,0-9.838-23.752l-3.274-3.274a26.059,26.059,0,0,1-7.683-18.548V205.252A19.172,19.172,0,0,0,167.81,186.1h-2.492a10.811,10.811,0,0,1-10.8-10.8V164.36A11.7,11.7,0,0,1,166.2,152.675h56.974l17.187,17.188A22.518,22.518,0,0,1,247,185.891v8.176A15.2,15.2,0,0,0,255.839,207.851ZM14.264,179.012a165.594,165.594,0,0,1,1.205-19.9H37.306a26.928,26.928,0,0,1,19.168,7.94l6.263,6.262a28.235,28.235,0,0,0,20.1,8.324A14.987,14.987,0,0,1,93.5,186.057l.138.138a27.136,27.136,0,0,1,8,19.314v12.756A36.157,36.157,0,0,1,90.98,244L77.322,257.656A61.545,61.545,0,0,0,59.792,292.6,164.17,164.17,0,0,1,14.264,179.012ZM179.012,343.76A164,164,0,0,1,73.424,305.371V301.5a47.433,47.433,0,0,1,13.984-33.76l13.658-13.658A50.326,50.326,0,0,0,115.9,218.265V205.509a41.306,41.306,0,0,0-12.178-29.4l-.138-.137a29.157,29.157,0,0,0-20.753-8.6,14.065,14.065,0,0,1-10.01-4.146l-6.263-6.263a41.1,41.1,0,0,0-29.255-12.117H17.836C33.61,70.346,99.881,14.264,179.012,14.264q8.283,0,16.365.812a17.113,17.113,0,0,0,7.049,32.709h26.154a1.783,1.783,0,1,1,0,3.566H158.89a14.789,14.789,0,0,0-14.772,14.772v1.446a5.5,5.5,0,0,1-1.621,3.913l-4.172,4.172a37.112,37.112,0,0,0-10.941,26.415v9.681A13.266,13.266,0,0,0,140.634,125h7.19a17.657,17.657,0,0,0,17.637-17.637,6.309,6.309,0,0,1,1.86-4.491l3.687-3.687c.145-.145.3-.28.451-.409.119.139.238.277.369.409L186.043,113.4a7.131,7.131,0,0,0,10.135,10.033l4.992-4.992a7.133,7.133,0,0,0,0-10.087L190.151,97.336a24.139,24.139,0,0,1,16.752,7.111l7.1,7.1a36.931,36.931,0,0,1,10.888,26.285v.583H166.2a25.978,25.978,0,0,0-25.949,25.949V175.3a25.092,25.092,0,0,0,25.063,25.063h2.491a4.892,4.892,0,0,1,4.887,4.886v21.021a40.232,40.232,0,0,0,11.86,28.635l3.274,3.274a19.2,19.2,0,0,1,5.661,13.666,20.565,20.565,0,0,0,20.565,20.566h.011a14.894,14.894,0,0,0,14.869-14.875V277.1a20.455,20.455,0,0,1,2.957-10.594l8.85-14.622a.165.165,0,0,1,.011-.019l7.081-11.78a96.327,96.327,0,0,1,14.232-18.267l7.95-8a11.053,11.053,0,0,0-7.839-18.846.909.909,0,0,1-.908-.908v-8.176a36.688,36.688,0,0,0-10.817-26.114l-1.58-1.58a35.067,35.067,0,0,1,19.83,9.976l5.683,5.683a22.606,22.606,0,0,0,31.769-32.169l-2.354-2.354a.856.856,0,0,1,.605-1.461H338.56a164.451,164.451,0,0,1,5.2,41.138C343.76,269.854,269.854,343.76,179.012,343.76Z" fill="#333"/>
        <path id="Path_195" data-name="Path 195" d="M181.132,73.383a7.132,7.132,0,0,0,7.132-7.132V51.626a7.132,7.132,0,1,0-14.264,0V66.251A7.132,7.132,0,0,0,181.132,73.383Z" transform="translate(-49.904 -12.761)" fill="#333"/>
        <path id="Path_196" data-name="Path 196" d="M390.336,314.448a7.131,7.131,0,0,0-9.174,4.191,142.576,142.576,0,0,1-133.03,92.354,7.132,7.132,0,1,0,0,14.264,156.249,156.249,0,0,0,146.4-101.634A7.133,7.133,0,0,0,390.336,314.448Z" transform="translate(-69.12 -90.056)" fill="#333"/>
        <path id="Path_197" data-name="Path 197" d="M190.262,441.076a141.381,141.381,0,0,1-20.365-6.794,7.132,7.132,0,0,0-5.532,13.148,155.621,155.621,0,0,0,22.426,7.482,7.132,7.132,0,0,0,3.47-13.836Z" transform="translate(-45.888 -124.394)" fill="#333"/>
      </g>
    </g>
    <text id="NOMAD" transform="translate(-1827 3256)" font-size="142" font-family="Phosphate-Inline, Phosphate"><tspan x="0" y="0">NOMAD</tspan></text>
  </g>
</svg>
